<svg xmlns="http://www.w3.org/2000/svg" viewBox="0 0 1920 1080" preserveAspectRatio="xMidYMid slice"><defs><linearGradient id="obsidian" x1="0" y1="0" x2="0" y2="1"><stop offset="0" stop-color="#03040a"/><stop offset="0.55" stop-color="#070b1c"/><stop offset="1" stop-color="#0d0a1f"/></linearGradient><linearGradient id="aurora-a" x1="0" y1="0" x2="0" y2="1"><stop offset="0" stop-color="#38bdf8" stop-opacity="0"/><stop offset="0.45" stop-color="#38bdf8" stop-opacity="0.32"/><stop offset="1" stop-color="#7c3aed" stop-opacity="0"/></linearGradient><linearGradient id="aurora-b" x1="0" y1="0" x2="0" y2="1"><stop offset="0" stop-color="#7c3aed" stop-opacity="0"/><stop offset="0.5" stop-color="#a78bfa" stop-opacity="0.3"/><stop offset="1" stop-color="#38bdf8" stop-opacity="0"/></linearGradient><linearGradient id="floor-fade" x1="0" y1="0" x2="0" y2="1"><stop offset="0" stop-color="#f0c040" stop-opacity="0"/><stop offset="1" stop-color="#f0c040" stop-opacity="0.5"/></linearGradient><linearGradient id="trend" x1="0" x2="1"><stop offset="0" stop-color="#f0c040" stop-opacity="0"/><stop offset="0.3" stop-color="#f0c040"/><stop offset="1" stop-color="#fde68a"/></linearGradient><linearGradient id="trend-fill" x1="0" y1="0" x2="0" y2="1"><stop offset="0" stop-color="#f0c040" stop-opacity="0.16"/><stop offset="1" stop-color="#f0c040" stop-opacity="0"/></linearGradient><linearGradient id="coin" x1="0" y1="0" x2="1" y2="1"><stop offset="0" stop-color="#fde68a"/><stop offset="0.5" stop-color="#f0c040"/><stop offset="1" stop-color="#b8860b"/></linearGradient><radialGradient id="glow-gold"><stop offset="0" stop-color="#f0c040" stop-opacity="0.45"/><stop offset="1" stop-color="#f0c040" stop-opacity="0"/></radialGradient><radialGradient id="glow-sky"><stop offset="0" stop-color="#38bdf8" stop-opacity="0.3"/><stop offset="1" stop-color="#38bdf8" stop-opacity="0"/></radialGradient><radialGradient id="glow-purple"><stop offset="0" stop-color="#7c3aed" stop-opacity="0.4"/><stop offset="1" stop-color="#7c3aed" stop-opacity="0"/></radialGradient><radialGradient id="star-glow"><stop offset="0" stop-color="#ffffff" stop-opacity="0.9"/><stop offset="1" stop-color="#ffffff" stop-opacity="0"/></radialGradient><filter id="soft" x="-20%" y="-20%" width="140%" height="140%"><feGaussianBlur stdDeviation="18"/></filter><filter id="line-glow" x="-5%" y="-30%" width="110%" height="160%"><feGaussianBlur stdDeviation="5" result="b"/><feMerge><feMergeNode in="b"/><feMergeNode in="SourceGraphic"/></feMerge></filter></defs><rect width="1920" height="1080" fill="url(#obsidian)"/><ellipse cx="1500" cy="160" rx="700" ry="380" fill="url(#glow-purple)"/><ellipse cx="300" cy="120" rx="620" ry="320" fill="url(#glow-sky)"/><ellipse cx="960" cy="760" rx="900" ry="300" fill="url(#glow-gold)" opacity="0.55"/><g filter="url(#soft)"><path d="M101.1 -20 C 54.1 192.8, 148.1 385.7, 77.6 550.9 L 235.7 550.9 C 306.2 385.7, 212.2 192.8, 259.2 -20 Z" fill="url(#aurora-a)" opacity="0.6"/><path d="M282 -20 C 261.5 157.3, 302.5 314.6, 271.7 449.5 L 420.9 449.5 C 451.6 314.6, 410.6 157.3, 431.1 -20 Z" fill="url(#aurora-b)" opacity="0.6"/><path d="M523.3 -20 C 537.8 143.3, 508.7 286.6, 530.6 409.4 L 624.4 409.4 C 602.6 286.6, 631.7 143.3, 617.2 -20 Z" fill="url(#aurora-a)" opacity="0.8"/><path d="M746.2 -20 C 761.9 195.4, 730.6 390.7, 754.1 558.2 L 883.7 558.2 C 860.2 390.7, 891.5 195.4, 875.8 -20 Z" fill="url(#aurora-b)" opacity="0.6"/><path d="M948.1 -20 C 936.4 179.7, 959.9 359.4, 942.3 513.4 L 1055.9 513.4 C 1073.4 359.4, 1050 179.7, 1061.7 -20 Z" fill="url(#aurora-a)" opacity="0.9"/><path d="M1173.9 -20 C 1111.5 159.2, 1236.2 318.4, 1142.7 454.8 L 1256.2 454.8 C 1349.8 318.4, 1225 159.2, 1287.4 -20 Z" fill="url(#aurora-b)" opacity="0.7"/><path d="M1366.5 -20 C 1286.7 157.7, 1446.3 315.5, 1326.6 450.7 L 1464 450.7 C 1583.7 315.5, 1424.1 157.7, 1503.9 -20 Z" fill="url(#aurora-a)" opacity="0.5"/><path d="M1629.2 -20 C 1678.3 176.9, 1580.2 353.7, 1653.7 505.3 L 1820.7 505.3 C 1747.2 353.7, 1845.3 176.9, 1796.2 -20 Z" fill="url(#aurora-b)" opacity="0.9"/><path d="M1823.1 -20 C 1825.4 170.3, 1820.8 340.7, 1824.3 486.7 L 1940.4 486.7 C 1936.9 340.7, 1941.6 170.3, 1939.2 -20 Z" fill="url(#aurora-a)" opacity="0.7"/></g><circle cx="1493.1" cy="8" r="1.1" fill="#fdf6dc" opacity="0.3"/><circle cx="831.4" cy="200.6" r="1.2" fill="#e0f2fe" opacity="0.5"/><circle cx="508.5" cy="437.8" r="0.8" fill="#ffffff" opacity="0.6"/><circle cx="628.8" cy="197.6" r="0.6" fill="#fdf6dc" opacity="0.3"/><circle cx="1013.6" cy="209.7" r="0.9" fill="#fdf6dc" opacity="0.7"/><circle cx="1269.3" cy="21.4" r="1.7" fill="#fdf6dc" opacity="0.8"/><circle cx="1269.3" cy="21.4" r="6.7" fill="url(#star-glow)" opacity="0.3"/><circle cx="1202.8" cy="262.7" r="2" fill="#fdf6dc" opacity="0.5"/><circle cx="1202.8" cy="262.7" r="8" fill="url(#star-glow)" opacity="0.3"/><circle cx="119" cy="156.7" r="0.6" fill="#ffffff" opacity="0.7"/><circle cx="737.9" cy="657.5" r="0.4" fill="#fdf6dc" opacity="0.9"/><circle cx="1338.2" cy="461" r="0.5" fill="#e0f2fe" opacity="0.7"/><circle cx="298.1" cy="115" r="0.7" fill="#fdf6dc" opacity="0.6"/><circle cx="870.3" cy="46.8" r="1.9" fill="#e0f2fe" opacity="0.7"/><circle cx="870.3" cy="46.8" r="7.5" fill="url(#star-glow)" opacity="0.3"/><circle cx="1085.6" cy="264" r="1.1" fill="#fdf6dc" opacity="0.8"/><circle cx="166.7" cy="521.6" r="0.8" fill="#ffffff" opacity="0.4"/><circle cx="185.8" cy="458.3" r="1.1" fill="#ffffff" opacity="0.7"/><circle cx="1581.8" cy="317.5" r="0.4" fill="#fdf6dc" opacity="0.8"/><circle cx="1861" cy="344.3" r="0.7" fill="#fdf6dc" opacity="0.4"/><circle cx="544.8" cy="220.5" r="0.8" fill="#fdf6dc" opacity="0.5"/><circle cx="146.1" cy="300.7" r="1.6" fill="#ffffff" opacity="0.3"/><circle cx="146.1" cy="300.7" r="6.2" fill="url(#star-glow)" opacity="0.3"/><circle cx="77.5" cy="157.7" r="1.8" fill="#ffffff" opacity="0.7"/><circle cx="77.5" cy="157.7" r="7.4" fill="url(#star-glow)" opacity="0.3"/><circle cx="557" cy="82" r="0.4" fill="#e0f2fe" opacity="0.7"/><circle cx="1864.9" cy="160" r="0.9" fill="#fdf6dc" opacity="0.5"/><circle cx="183.4" cy="535.5" r="0.9" fill="#ffffff" opacity="0.6"/><circle cx="1888.9" cy="226.6" r="1.2" fill="#fdf6dc" opacity="0.6"/><circle cx="1540.1" cy="176.8" r="0.8" fill="#fdf6dc" opacity="0.7"/><circle cx="1303.2" cy="339.2" r="0.4" fill="#e0f2fe" opacity="0.5"/><circle cx="730.7" cy="614.7" r="1" fill="#fdf6dc" opacity="0.9"/><circle cx="1757.9" cy="502.8" r="0.9" fill="#ffffff" opacity="0.4"/><circle cx="649.4" cy="239.4" r="0.4" fill="#fdf6dc" opacity="0.8"/><circle cx="1009.6" cy="521.4" r="1.8" fill="#ffffff" opacity="0.4"/><circle cx="1009.6" cy="521.4" r="7" fill="url(#star-glow)" opacity="0.3"/><circle cx="1392.7" cy="323.9" r="1.8" fill="#fdf6dc" opacity="0.7"/><circle cx="1392.7" cy="323.9" r="7.3" fill="url(#star-glow)" opacity="0.3"/><circle cx="793.1" cy="633" r="0.7" fill="#e0f2fe" opacity="0.7"/><circle cx="711.6" cy="600.8" r="1.1" fill="#ffffff" opacity="0.6"/><circle cx="1371.4" cy="603.8" r="0.5" fill="#e0f2fe" opacity="0.8"/><circle cx="916.4" cy="398.1" r="0.7" fill="#fdf6dc" opacity="0.3"/><circle cx="488.9" cy="380.8" r="0.6" fill="#fdf6dc" opacity="0.8"/><circle cx="1282.7" cy="634.8" r="0.5" fill="#ffffff" opacity="0.3"/><circle cx="473.1" cy="541.3" r="1.1" fill="#ffffff" opacity="0.4"/><circle cx="1474.8" cy="393.2" r="0.8" fill="#ffffff" opacity="0.7"/><circle cx="1240.2" cy="555.8" r="0.8" fill="#e0f2fe" opacity="0.9"/><circle cx="1762.9" cy="206.3" r="0.5" fill="#ffffff" opacity="0.6"/><circle cx="657" cy="667.8" r="0.7" fill="#e0f2fe" opacity="0.6"/><circle cx="1636.4" cy="141.1" r="1" fill="#e0f2fe" opacity="0.5"/><circle cx="102.3" cy="213.2" r="0.6" fill="#fdf6dc" opacity="0.5"/><circle cx="675.9" cy="183.1" r="0.6" fill="#fdf6dc" opacity="0.5"/><circle cx="1882.1" cy="413" r="1" fill="#e0f2fe" opacity="0.6"/><circle cx="692.5" cy="361.1" r="2.1" fill="#e0f2fe" opacity="0.5"/><circle cx="692.5" cy="361.1" r="8.6" fill="url(#star-glow)" opacity="0.3"/><circle cx="1522.7" cy="552" r="0.6" fill="#e0f2fe" opacity="0.5"/><circle cx="163.8" cy="2.4" r="0.6" fill="#fdf6dc" opacity="0.3"/><circle cx="1320" cy="104.2" r="0.8" fill="#fdf6dc" opacity="0.5"/><circle cx="1064" cy="149.1" r="0.5" fill="#e0f2fe" opacity="0.7"/><circle cx="963.7" cy="371.8" r="1.1" fill="#e0f2fe" opacity="0.3"/><circle cx="1436.7" cy="64.1" r="0.6" fill="#e0f2fe" opacity="0.8"/><circle cx="757.7" cy="637.1" r="1.1" fill="#ffffff" opacity="0.4"/><circle cx="363.7" cy="617.2" r="0.7" fill="#fdf6dc" opacity="0.4"/><circle cx="865.3" cy="216.1" r="0.5" fill="#fdf6dc" opacity="0.3"/><circle cx="680.9" cy="587.4" r="1.7" fill="#ffffff" opacity="0.4"/><circle cx="680.9" cy="587.4" r="6.9" fill="url(#star-glow)" opacity="0.3"/><circle cx="348.6" cy="317.9" r="0.4" fill="#fdf6dc" opacity="0.8"/><circle cx="1294.1" cy="156.9" r="2" fill="#e0f2fe" opacity="0.7"/><circle cx="1294.1" cy="156.9" r="8" fill="url(#star-glow)" opacity="0.3"/><circle cx="1391.3" cy="389.1" r="0.7" fill="#ffffff" opacity="0.4"/><circle cx="101.6" cy="205.8" r="0.9" fill="#fdf6dc" opacity="0.8"/><circle cx="212.6" cy="362.6" r="1.5" fill="#ffffff" opacity="0.5"/><circle cx="212.6" cy="362.6" r="6.1" fill="url(#star-glow)" opacity="0.3"/><circle cx="250.4" cy="282.3" r="0.6" fill="#ffffff" opacity="0.6"/><circle cx="1339.9" cy="455.8" r="0.9" fill="#e0f2fe" opacity="0.6"/><circle cx="505.6" cy="288.7" r="0.7" fill="#e0f2fe" opacity="0.5"/><circle cx="62.2" cy="637.5" r="1" fill="#fdf6dc" opacity="0.7"/><circle cx="70" cy="200.9" r="1.1" fill="#fdf6dc" opacity="0.3"/><circle cx="541.7" cy="17.8" r="0.5" fill="#e0f2fe" opacity="0.4"/><circle cx="922.9" cy="5.4" r="0.6" fill="#ffffff" opacity="0.4"/><circle cx="1850.6" cy="404" r="1.8" fill="#ffffff" opacity="0.4"/><circle cx="1850.6" cy="404" r="7.1" fill="url(#star-glow)" opacity="0.3"/><circle cx="468.7" cy="534.4" r="2.1" fill="#fdf6dc" opacity="0.5"/><circle cx="468.7" cy="534.4" r="8.3" fill="url(#star-glow)" opacity="0.3"/><circle cx="152.7" cy="309.5" r="0.5" fill="#fdf6dc" opacity="0.6"/><circle cx="376.5" cy="524.1" r="0.8" fill="#fdf6dc" opacity="0.4"/><circle cx="42" cy="443.8" r="1.1" fill="#fdf6dc" opacity="0.5"/><circle cx="489.8" cy="508.9" r="1.1" fill="#fdf6dc" opacity="0.8"/><circle cx="1177.7" cy="103" r="0.5" fill="#e0f2fe" opacity="0.8"/><circle cx="499.7" cy="564.1" r="0.9" fill="#ffffff" opacity="0.5"/><circle cx="1666.6" cy="313.9" r="2" fill="#fdf6dc" opacity="0.6"/><circle cx="1666.6" cy="313.9" r="8" fill="url(#star-glow)" opacity="0.3"/><circle cx="1679.4" cy="45.5" r="1.7" fill="#ffffff" opacity="0.8"/><circle cx="1679.4" cy="45.5" r="6.8" fill="url(#star-glow)" opacity="0.3"/><circle cx="359.8" cy="347.3" r="0.9" fill="#fdf6dc" opacity="0.6"/><circle cx="41.4" cy="297.6" r="0.8" fill="#fdf6dc" opacity="0.7"/><circle cx="93.7" cy="575.8" r="1.2" fill="#fdf6dc" opacity="0.6"/><circle cx="1357.4" cy="0.9" r="2.1" fill="#ffffff" opacity="0.6"/><circle cx="1357.4" cy="0.9" r="8.3" fill="url(#star-glow)" opacity="0.3"/><circle cx="1386.9" cy="286.6" r="0.6" fill="#fdf6dc" opacity="0.8"/><circle cx="1224.5" cy="318.8" r="1.1" fill="#fdf6dc" opacity="0.8"/><circle cx="610.6" cy="300.5" r="0.9" fill="#ffffff" opacity="0.8"/><circle cx="610.1" cy="608.5" r="0.8" fill="#fdf6dc" opacity="0.5"/><circle cx="1363" cy="227.5" r="0.5" fill="#fdf6dc" opacity="0.6"/><circle cx="630" cy="584.6" r="0.9" fill="#e0f2fe" opacity="0.7"/><circle cx="1451.9" cy="57.2" r="1.9" fill="#e0f2fe" opacity="0.4"/><circle cx="1451.9" cy="57.2" r="7.5" fill="url(#star-glow)" opacity="0.3"/><circle cx="381.1" cy="411" r="0.7" fill="#e0f2fe" opacity="0.6"/><circle cx="1899.5" cy="500.5" r="1.2" fill="#ffffff" opacity="0.6"/><circle cx="1567.3" cy="462.5" r="1.9" fill="#e0f2fe" opacity="0.3"/><circle cx="1567.3" cy="462.5" r="7.7" fill="url(#star-glow)" opacity="0.3"/><circle cx="118.7" cy="285.7" r="1.1" fill="#fdf6dc" opacity="0.9"/><circle cx="854.7" cy="297.9" r="2.2" fill="#ffffff" opacity="0.8"/><circle cx="854.7" cy="297.9" r="8.6" fill="url(#star-glow)" opacity="0.3"/><circle cx="283.5" cy="511.2" r="0.4" fill="#e0f2fe" opacity="0.8"/><circle cx="339.1" cy="514" r="0.5" fill="#fdf6dc" opacity="0.4"/><circle cx="1156.5" cy="576.9" r="0.8" fill="#ffffff" opacity="0.7"/><circle cx="1496.5" cy="168.1" r="0.9" fill="#fdf6dc" opacity="0.6"/><circle cx="1675.9" cy="162.4" r="0.5" fill="#ffffff" opacity="0.4"/><circle cx="1239.1" cy="41" r="1" fill="#fdf6dc" opacity="0.4"/><circle cx="292" cy="401.1" r="0.9" fill="#e0f2fe" opacity="0.6"/><circle cx="151.1" cy="41.4" r="0.7" fill="#ffffff" opacity="0.6"/><circle cx="1598" cy="30.3" r="0.8" fill="#fdf6dc" opacity="0.6"/><circle cx="573.5" cy="57" r="0.8" fill="#e0f2fe" opacity="0.6"/><circle cx="819.4" cy="379" r="0.8" fill="#ffffff" opacity="0.5"/><circle cx="1145.8" cy="478.4" r="0.7" fill="#fdf6dc" opacity="0.7"/><circle cx="598.9" cy="514.3" r="1.2" fill="#ffffff" opacity="0.7"/><circle cx="148" cy="593.3" r="1.9" fill="#e0f2fe" opacity="0.4"/><circle cx="148" cy="593.3" r="7.8" fill="url(#star-glow)" opacity="0.3"/><circle cx="1289.2" cy="343.5" r="0.5" fill="#e0f2fe" opacity="0.3"/><circle cx="788.8" cy="414.9" r="0.6" fill="#ffffff" opacity="0.7"/><circle cx="309.2" cy="251.6" r="1" fill="#ffffff" opacity="0.9"/><circle cx="511.6" cy="524.5" r="0.5" fill="#ffffff" opacity="0.7"/><circle cx="848.1" cy="535.1" r="0.4" fill="#e0f2fe" opacity="0.5"/><circle cx="473.3" cy="341.6" r="1.1" fill="#ffffff" opacity="0.3"/><circle cx="1126.2" cy="222.8" r="1.1" fill="#e0f2fe" opacity="0.8"/><circle cx="792.6" cy="525.3" r="0.6" fill="#e0f2fe" opacity="0.7"/><circle cx="1302.9" cy="5.7" r="0.8" fill="#ffffff" opacity="0.7"/><circle cx="1094.4" cy="179.7" r="0.6" fill="#fdf6dc" opacity="0.6"/><circle cx="169.2" cy="498.4" r="0.8" fill="#e0f2fe" opacity="0.6"/><g stroke="url(#floor-fade)" stroke-width="1"><line x1="0" x2="1920" y1="700" y2="700"/><line x1="0" x2="1920" y1="703.2" y2="703.2"/><line x1="0" x2="1920" y1="712" y2="712"/><line x1="0" x2="1920" y1="725.9" y2="725.9"/><line x1="0" x2="1920" y1="744.7" y2="744.7"/><line x1="0" x2="1920" y1="768.4" y2="768.4"/><line x1="0" x2="1920" y1="796.7" y2="796.7"/><line x1="0" x2="1920" y1="829.6" y2="829.6"/><line x1="0" x2="1920" y1="867" y2="867"/><line x1="0" x2="1920" y1="908.8" y2="908.8"/><line x1="0" x2="1920" y1="955.1" y2="955.1"/><line x1="0" x2="1920" y1="1005.8" y2="1005.8"/><line x1="0" x2="1920" y1="1060.7" y2="1060.7"/><line x1="0" x2="1920" y1="1120" y2="1120"/><line x1="492" y1="700" x2="-2460" y2="1120"/><line x1="518" y1="700" x2="-2270" y2="1120"/><line x1="544" y1="700" x2="-2080" y2="1120"/><line x1="570" y1="700" x2="-1890" y2="1120"/><line x1="596" y1="700" x2="-1700" y2="1120"/><line x1="622" y1="700" x2="-1510" y2="1120"/><line x1="648" y1="700" x2="-1320" y2="1120"/><line x1="674" y1="700" x2="-1130" y2="1120"/><line x1="700" y1="700" x2="-940" y2="1120"/><line x1="726" y1="700" x2="-750" y2="1120"/><line x1="752" y1="700" x2="-560" y2="1120"/><line x1="778" y1="700" x2="-370" y2="1120"/><line x1="804" y1="700" x2="-180" y2="1120"/><line x1="830" y1="700" x2="10" y2="1120"/><line x1="856" y1="700" x2="200" y2="1120"/><line x1="882" y1="700" x2="390" y2="1120"/><line x1="908" y1="700" x2="580" y2="1120"/><line x1="934" y1="700" x2="770" y2="1120"/><line x1="960" y1="700" x2="960" y2="1120"/><line x1="986" y1="700" x2="1150" y2="1120"/><line x1="1012" y1="700" x2="1340" y2="1120"/><line x1="1038" y1="700" x2="1530" y2="1120"/><line x1="1064" y1="700" x2="1720" y2="1120"/><line x1="1090" y1="700" x2="1910" y2="1120"/><line x1="1116" y1="700" x2="2100" y2="1120"/><line x1="1142" y1="700" x2="2290" y2="1120"/><line x1="1168" y1="700" x2="2480" y2="1120"/><line x1="1194" y1="700" x2="2670" y2="1120"/><line x1="1220" y1="700" x2="2860" y2="1120"/><line x1="1246" y1="700" x2="3050" y2="1120"/><line x1="1272" y1="700" x2="3240" y2="1120"/><line x1="1298" y1="700" x2="3430" y2="1120"/><line x1="1324" y1="700" x2="3620" y2="1120"/><line x1="1350" y1="700" x2="3810" y2="1120"/><line x1="1376" y1="700" x2="4000" y2="1120"/><line x1="1402" y1="700" x2="4190" y2="1120"/><line x1="1428" y1="700" x2="4380" y2="1120"/></g><rect x="0" y="698" width="1920" height="2" fill="#f0c040" opacity="0.35"/><g opacity="0.2"><line x1="37" x2="37" y1="623.4" y2="695.1" stroke="#f0c040" stroke-width="1.4"/><rect x="30" y="646.7" width="14" height="33.9" rx="2" fill="#f0c040"/><line x1="71" x2="71" y1="512.8" y2="691.4" stroke="#f0c040" stroke-width="1.4"/><rect x="64" y="543.1" width="14" height="131.6" rx="2" fill="#f0c040"/><line x1="105" x2="105" y1="542.5" y2="706.2" stroke="#e11d48" stroke-width="1.4"/><rect x="98" y="575.4" width="14" height="115.9" rx="2" fill="#e11d48"/><line x1="139" x2="139" y1="589.7" y2="693.7" stroke="#38bdf8" stroke-width="1.4"/><rect x="132" y="614.3" width="14" height="64.6" rx="2" fill="#38bdf8"/><line x1="173" x2="173" y1="615.9" y2="699.7" stroke="#e11d48" stroke-width="1.4"/><rect x="166" y="642.2" width="14" height="38" rx="2" fill="#e11d48"/><line x1="207" x2="207" y1="502.3" y2="685.2" stroke="#e11d48" stroke-width="1.4"/><rect x="200" y="515.5" width="14" height="147.5" rx="2" fill="#e11d48"/><line x1="241" x2="241" y1="625.6" y2="703.4" stroke="#e11d48" stroke-width="1.4"/><rect x="234" y="636.5" width="14" height="47.5" rx="2" fill="#e11d48"/><line x1="275" x2="275" y1="546.1" y2="686.4" stroke="#e11d48" stroke-width="1.4"/><rect x="268" y="557" width="14" height="107.8" rx="2" fill="#e11d48"/><line x1="309" x2="309" y1="620" y2="711.1" stroke="#f0c040" stroke-width="1.4"/><rect x="302" y="637.9" width="14" height="51" rx="2" fill="#f0c040"/><line x1="343" x2="343" y1="541.4" y2="714.8" stroke="#e11d48" stroke-width="1.4"/><rect x="336" y="573.2" width="14" height="126.5" rx="2" fill="#e11d48"/><line x1="377" x2="377" y1="534.6" y2="687.4" stroke="#e11d48" stroke-width="1.4"/><rect x="370" y="560.9" width="14" height="112.1" rx="2" fill="#e11d48"/><line x1="411" x2="411" y1="597.3" y2="698.1" stroke="#38bdf8" stroke-width="1.4"/><rect x="404" y="615.4" width="14" height="62.2" rx="2" fill="#38bdf8"/><line x1="445" x2="445" y1="522.2" y2="667.3" stroke="#38bdf8" stroke-width="1.4"/><rect x="438" y="546.8" width="14" height="102.5" rx="2" fill="#38bdf8"/><line x1="479" x2="479" y1="596.2" y2="689.8" stroke="#e11d48" stroke-width="1.4"/><rect x="472" y="629" width="14" height="40.9" rx="2" fill="#e11d48"/><line x1="513" x2="513" y1="503.7" y2="663" stroke="#e11d48" stroke-width="1.4"/><rect x="506" y="517.4" width="14" height="132.8" rx="2" fill="#e11d48"/><line x1="547" x2="547" y1="492.2" y2="666" stroke="#f0c040" stroke-width="1.4"/><rect x="540" y="519" width="14" height="133.5" rx="2" fill="#f0c040"/><line x1="581" x2="581" y1="585.3" y2="664" stroke="#f0c040" stroke-width="1.4"/><rect x="574" y="600.6" width="14" height="53.8" rx="2" fill="#f0c040"/><line x1="615" x2="615" y1="554" y2="651.3" stroke="#f0c040" stroke-width="1.4"/><rect x="608" y="567.1" width="14" height="73.7" rx="2" fill="#f0c040"/><line x1="649" x2="649" y1="442.8" y2="635" stroke="#f0c040" stroke-width="1.4"/><rect x="642" y="475.4" width="14" height="150.9" rx="2" fill="#f0c040"/><line x1="683" x2="683" y1="526.5" y2="619" stroke="#38bdf8" stroke-width="1.4"/><rect x="676" y="538" width="14" height="69" rx="2" fill="#38bdf8"/><line x1="717" x2="717" y1="506.7" y2="638.6" stroke="#f0c040" stroke-width="1.4"/><rect x="710" y="528.2" width="14" height="96.6" rx="2" fill="#f0c040"/><line x1="751" x2="751" y1="562.5" y2="651.9" stroke="#f0c040" stroke-width="1.4"/><rect x="744" y="573.7" width="14" height="54.7" rx="2" fill="#f0c040"/><line x1="785" x2="785" y1="521" y2="634.8" stroke="#f0c040" stroke-width="1.4"/><rect x="778" y="545.1" width="14" height="69" rx="2" fill="#f0c040"/><line x1="819" x2="819" y1="480.7" y2="596.4" stroke="#f0c040" stroke-width="1.4"/><rect x="812" y="497.2" width="14" height="89.6" rx="2" fill="#f0c040"/><line x1="853" x2="853" y1="443.3" y2="598.7" stroke="#f0c040" stroke-width="1.4"/><rect x="846" y="467" width="14" height="118.2" rx="2" fill="#f0c040"/><line x1="887" x2="887" y1="446.7" y2="623.1" stroke="#38bdf8" stroke-width="1.4"/><rect x="880" y="480.3" width="14" height="128.5" rx="2" fill="#38bdf8"/><line x1="921" x2="921" y1="498.1" y2="641.5" stroke="#f0c040" stroke-width="1.4"/><rect x="914" y="531.5" width="14" height="88" rx="2" fill="#f0c040"/><line x1="955" x2="955" y1="506.9" y2="653.4" stroke="#38bdf8" stroke-width="1.4"/><rect x="948" y="536.2" width="14" height="109.2" rx="2" fill="#38bdf8"/><line x1="989" x2="989" y1="564.8" y2="668.4" stroke="#f0c040" stroke-width="1.4"/><rect x="982" y="580.6" width="14" height="68.8" rx="2" fill="#f0c040"/><line x1="1023" x2="1023" y1="473.5" y2="635.8" stroke="#f0c040" stroke-width="1.4"/><rect x="1016" y="506.6" width="14" height="114.2" rx="2" fill="#f0c040"/><line x1="1057" x2="1057" y1="435.4" y2="612.2" stroke="#e11d48" stroke-width="1.4"/><rect x="1050" y="463.2" width="14" height="134.1" rx="2" fill="#e11d48"/><line x1="1091" x2="1091" y1="409.6" y2="608.2" stroke="#f0c040" stroke-width="1.4"/><rect x="1084" y="436.8" width="14" height="153.6" rx="2" fill="#f0c040"/><line x1="1125" x2="1125" y1="465.7" y2="590.5" stroke="#f0c040" stroke-width="1.4"/><rect x="1118" y="491.6" width="14" height="82.6" rx="2" fill="#f0c040"/><line x1="1159" x2="1159" y1="440.7" y2="586.6" stroke="#38bdf8" stroke-width="1.4"/><rect x="1152" y="459.5" width="14" height="110.9" rx="2" fill="#38bdf8"/><line x1="1193" x2="1193" y1="385.5" y2="583" stroke="#f0c040" stroke-width="1.4"/><rect x="1186" y="418" width="14" height="145.6" rx="2" fill="#f0c040"/><line x1="1227" x2="1227" y1="428.4" y2="570.8" stroke="#e11d48" stroke-width="1.4"/><rect x="1220" y="459.3" width="14" height="92.2" rx="2" fill="#e11d48"/><line x1="1261" x2="1261" y1="365.2" y2="538.9" stroke="#e11d48" stroke-width="1.4"/><rect x="1254" y="390.5" width="14" height="137.4" rx="2" fill="#e11d48"/><line x1="1295" x2="1295" y1="389.4" y2="564.3" stroke="#f0c040" stroke-width="1.4"/><rect x="1288" y="422.2" width="14" height="130.1" rx="2" fill="#f0c040"/><line x1="1329" x2="1329" y1="419.8" y2="562.9" stroke="#38bdf8" stroke-width="1.4"/><rect x="1322" y="443.3" width="14" height="98.1" rx="2" fill="#38bdf8"/><line x1="1363" x2="1363" y1="378.7" y2="541.1" stroke="#38bdf8" stroke-width="1.4"/><rect x="1356" y="400.2" width="14" height="126" rx="2" fill="#38bdf8"/><line x1="1397" x2="1397" y1="388.9" y2="520.2" stroke="#38bdf8" stroke-width="1.4"/><rect x="1390" y="402.2" width="14" height="103.8" rx="2" fill="#38bdf8"/><line x1="1431" x2="1431" y1="368.1" y2="535.4" stroke="#f0c040" stroke-width="1.4"/><rect x="1424" y="393.2" width="14" height="132.5" rx="2" fill="#f0c040"/><line x1="1465" x2="1465" y1="332.4" y2="544" stroke="#e11d48" stroke-width="1.4"/><rect x="1458" y="356.3" width="14" height="179" rx="2" fill="#e11d48"/><line x1="1499" x2="1499" y1="355.7" y2="568.4" stroke="#f0c040" stroke-width="1.4"/><rect x="1492" y="386.3" width="14" height="166.1" rx="2" fill="#f0c040"/><line x1="1533" x2="1533" y1="400.8" y2="543.1" stroke="#38bdf8" stroke-width="1.4"/><rect x="1526" y="417.3" width="14" height="108.8" rx="2" fill="#38bdf8"/><line x1="1567" x2="1567" y1="391.8" y2="553.8" stroke="#f0c040" stroke-width="1.4"/><rect x="1560" y="411.7" width="14" height="128.4" rx="2" fill="#f0c040"/><line x1="1601" x2="1601" y1="323.2" y2="549.5" stroke="#e11d48" stroke-width="1.4"/><rect x="1594" y="340.7" width="14" height="197.7" rx="2" fill="#e11d48"/><line x1="1635" x2="1635" y1="296.8" y2="537.1" stroke="#f0c040" stroke-width="1.4"/><rect x="1628" y="323.7" width="14" height="191.4" rx="2" fill="#f0c040"/><line x1="1669" x2="1669" y1="332.5" y2="529.1" stroke="#38bdf8" stroke-width="1.4"/><rect x="1662" y="343.6" width="14" height="175.9" rx="2" fill="#38bdf8"/><line x1="1703" x2="1703" y1="305.2" y2="502.9" stroke="#e11d48" stroke-width="1.4"/><rect x="1696" y="330.3" width="14" height="160.3" rx="2" fill="#e11d48"/><line x1="1737" x2="1737" y1="342.7" y2="495.2" stroke="#e11d48" stroke-width="1.4"/><rect x="1730" y="353.6" width="14" height="127" rx="2" fill="#e11d48"/><line x1="1771" x2="1771" y1="306.8" y2="479.6" stroke="#e11d48" stroke-width="1.4"/><rect x="1764" y="330.4" width="14" height="130.6" rx="2" fill="#e11d48"/><line x1="1805" x2="1805" y1="269" y2="470.4" stroke="#f0c040" stroke-width="1.4"/><rect x="1798" y="292.4" width="14" height="159.5" rx="2" fill="#f0c040"/><line x1="1839" x2="1839" y1="235.7" y2="455.7" stroke="#f0c040" stroke-width="1.4"/><rect x="1832" y="265.2" width="14" height="174.8" rx="2" fill="#f0c040"/><line x1="1873" x2="1873" y1="293.1" y2="450.3" stroke="#f0c040" stroke-width="1.4"/><rect x="1866" y="308.6" width="14" height="131.4" rx="2" fill="#f0c040"/></g><path d="M-20 614.1 L28 600.6 L76 603.3 L124 603.1 L172 572.7 L220 545.3 L268 537.8 L316 555.1 L364 545.5 L412 554 L460 550.2 L508 551.4 L556 569.8 L604 564.8 L652 571.1 L700 581.5 L748 598.6 L796 567.4 L844 547.5 L892 556.5 L940 556.8 L988 563.7 L1036 526.8 L1084 547 L1132 551.7 L1180 546.1 L1228 508.4 L1276 526.5 L1324 535.8 L1372 526.8 L1420 545.5 L1468 560.8 L1516 532.5 L1564 534.2 L1612 496.2 L1660 479.7 L1708 471.1 L1756 449 L1804 458 L1852 436.3 L1900 429.6 L1948 401.5 L1948 700 L-20 700 Z" fill="url(#trend-fill)"/><path d="M-20 614.1 L28 600.6 L76 603.3 L124 603.1 L172 572.7 L220 545.3 L268 537.8 L316 555.1 L364 545.5 L412 554 L460 550.2 L508 551.4 L556 569.8 L604 564.8 L652 571.1 L700 581.5 L748 598.6 L796 567.4 L844 547.5 L892 556.5 L940 556.8 L988 563.7 L1036 526.8 L1084 547 L1132 551.7 L1180 546.1 L1228 508.4 L1276 526.5 L1324 535.8 L1372 526.8 L1420 545.5 L1468 560.8 L1516 532.5 L1564 534.2 L1612 496.2 L1660 479.7 L1708 471.1 L1756 449 L1804 458 L1852 436.3 L1900 429.6 L1948 401.5" fill="none" stroke="url(#trend)" stroke-width="2.6" stroke-linejoin="round" filter="url(#line-glow)"/><circle cx="124" cy="603.1" r="12" fill="url(#glow-gold)"/><circle cx="124" cy="603.1" r="3.4" fill="#fde68a"/><circle cx="460" cy="550.2" r="12" fill="url(#glow-gold)"/><circle cx="460" cy="550.2" r="3.4" fill="#fde68a"/><circle cx="796" cy="567.4" r="12" fill="url(#glow-gold)"/><circle cx="796" cy="567.4" r="3.4" fill="#fde68a"/><circle cx="1132" cy="551.7" r="12" fill="url(#glow-gold)"/><circle cx="1132" cy="551.7" r="3.4" fill="#fde68a"/><circle cx="1468" cy="560.8" r="12" fill="url(#glow-gold)"/><circle cx="1468" cy="560.8" r="3.4" fill="#fde68a"/><circle cx="1804" cy="458" r="12" fill="url(#glow-gold)"/><circle cx="1804" cy="458" r="3.4" fill="#fde68a"/><g transform="translate(1660 330) scale(1 1)" opacity="0.8"><circle r="64.6" fill="url(#glow-gold)"/><circle r="34" fill="url(#coin)"/><circle r="24.5" fill="none" stroke="#7a5a08" stroke-opacity="0.55" stroke-width="2.7"/><text y="10.9" text-anchor="middle" font-family="Arial, sans-serif" font-weight="900" font-size="30.6" fill="#7a5a08" fill-opacity="0.7">$</text></g><g transform="translate(1780 470) scale(1 0.45)" opacity="0.8"><circle r="38" fill="url(#glow-gold)"/><circle r="20" fill="url(#coin)"/><circle r="14.4" fill="none" stroke="#7a5a08" stroke-opacity="0.55" stroke-width="1.6"/><text y="6.4" text-anchor="middle" font-family="Arial, sans-serif" font-weight="900" font-size="18" fill="#7a5a08" fill-opacity="0.7">$</text></g><g transform="translate(220 420) scale(1 0.8)" opacity="0.8"><circle r="49.4" fill="url(#glow-gold)"/><circle r="26" fill="url(#coin)"/><circle r="18.7" fill="none" stroke="#7a5a08" stroke-opacity="0.55" stroke-width="2.1"/><text y="8.3" text-anchor="middle" font-family="Arial, sans-serif" font-weight="900" font-size="23.4" fill="#7a5a08" fill-opacity="0.7">$</text></g><g transform="translate(1180 140) scale(1 1)" opacity="0.8"><circle r="30.4" fill="url(#glow-gold)"/><circle r="16" fill="url(#coin)"/><circle r="11.5" fill="none" stroke="#7a5a08" stroke-opacity="0.55" stroke-width="1.3"/><text y="5.1" text-anchor="middle" font-family="Arial, sans-serif" font-weight="900" font-size="14.4" fill="#7a5a08" fill-opacity="0.7">$</text></g><g transform="translate(640 560) scale(1 0.5)" opacity="0.8"><circle r="26.599999999999998" fill="url(#glow-gold)"/><circle r="14" fill="url(#coin)"/><circle r="10.1" fill="none" stroke="#7a5a08" stroke-opacity="0.55" stroke-width="1.1"/><text y="4.5" text-anchor="middle" font-family="Arial, sans-serif" font-weight="900" font-size="12.6" fill="#7a5a08" fill-opacity="0.7">$</text></g></svg>
